HIERARCHY
ROOT pelvis
{
  OFFSET 0 100 0
  CHANNELS 6 Xposition Yposition Zposition Zrotation Xrotation Yrotation
  JOINT pelvis_right_femur
  {
    OFFSET -10.78128 -3.44521 -0.5502486
    CHANNELS 3 Zrotation Xrotation Yrotation
    JOINT right_femur_tibia
    {
      OFFSET -0.8047443 -44.0398 -0.1307829
      CHANNELS 3 Zrotation Xrotation Yrotation
      JOINT right_tibia_foot
      {
        OFFSET 3.006224 -47.83518 -5
        CHANNELS 3 Zrotation Xrotation Yrotation
        End Site
        {
          OFFSET 0 -5 15
        }
      }
    }
  }
  JOINT pelvis_left_femur
  {
    OFFSET 10.78128 -3.44521 -0.5502486
    CHANNELS 3 Zrotation Xrotation Yrotation
    JOINT left_femur_tibia
    {
      OFFSET 0.8047443 -44.0398 -0.1307829
      CHANNELS 3 Zrotation Xrotation Yrotation
      JOINT left_tibia_foot
      {
        OFFSET -4.370144 -48.10324 -4.275266
        CHANNELS 3 Zrotation Xrotation Yrotation
        End Site
        {
          OFFSET 0 -5 15
        }
      }
    }
  }
  JOINT pelvis_spine1
  {
    OFFSET 0 6.468898 -3.129235
    CHANNELS 3 Zrotation Xrotation Yrotation
    JOINT spine1
    {
      OFFSET 0 23.15396 4.99043
      CHANNELS 3 Zrotation Xrotation Yrotation
      JOINT spine2
      {
        OFFSET 0 20.79997 -5.064912
        CHANNELS 3 Zrotation Xrotation Yrotation
        JOINT neck
        {
          OFFSET 0 14.38658 9.616178
          CHANNELS 3 Zrotation Xrotation Yrotation
          End Site
          {
            OFFSET 0 20 0
          }
        }
      }
      JOINT right_manubrium
      {
        OFFSET -5.722621 16.35077 3.967754
        CHANNELS 3 Zrotation Xrotation Yrotation
        JOINT right_clavicle
        {
          OFFSET -13.16364 1.694482 -4.693211
          CHANNELS 3 Zrotation Xrotation Yrotation
          JOINT right_humerus
          {
            OFFSET -28.5034 -0.3100689 -2.792744
            CHANNELS 3 Zrotation Xrotation Yrotation
            JOINT right_radius
            {
              OFFSET -25.15693 0.02248979 -1.271978
              CHANNELS 3 Zrotation Xrotation Yrotation
              End Site
              {
                OFFSET -15 0 0
              }
            }
          }
        }
      }
      JOINT left_manubrium
      {
        OFFSET 5.722621 16.35077 3.967754
        CHANNELS 3 Zrotation Xrotation Yrotation
        JOINT left_clavicle
        {
          OFFSET 13.16364 1.694482 -4.693211
          CHANNELS 3 Zrotation Xrotation Yrotation
          JOINT left_humerus
          {
            OFFSET 29.39168 -1.063119 -2.237045
            CHANNELS 3 Zrotation Xrotation Yrotation
            JOINT left_radius
            {
              OFFSET 24.59957 -0.9528479 0.9047498
              CHANNELS 3 Zrotation Xrotation Yrotation
              End Site
              {
                OFFSET 15 -0 -0
              }
            }
          }
        }
      }
    }
  }
}
MOTION
Frames: 23
Frame Time: 0.0416666666667
0 103.5113 0 0.9767977 -0.5257872 0.05924877 3.306008 -16.76988 9.820204 -0 40.44799 -0 -5.473709 -18.63234 -3.822551 -7.095327 10.90944 -24.217 -0 4.734124 -0 9.839066 -16.26591 27.55377 -3.902842 -3.997935 4.275335 2.442917 9.081869 -7.330708 1.578017 22.52655 6.672407 2.463038 -24.26419 10.12028 6.970967 -19.13446 11.43416 85.16251 36.7752 -18.22289 -0 0 15.78732 -7.330036 9.473667 5.076296 5.232995 -18.54216 -1.207757 -93.45391 26.81544 20.97487 0 0 -14.6029 8.65121 18.14611 4.166724
0.2665449 104.4143 1.433503 0.8784725 -0.5320589 0.1276517 3.355668 -17.32866 9.424377 -0 39.8882 -0 -5.598259 -17.86279 -3.682616 -6.982619 11.03749 -23.88997 -0 4.829792 -0 9.370644 -16.54218 27.09261 -3.795431 -3.89122 4.212809 2.415091 9.157979 -7.367086 1.530022 22.45457 6.762359 2.581606 -24.23129 10.04678 6.885137 -19.09844 11.45963 85.30526 36.54753 -18.38989 -0 0 15.68443 -7.699388 9.522134 5.138623 5.375358 -18.82835 -1.323848 -93.24678 26.61037 20.74464 0 0 -14.95774 8.699611 18.10393 4.061807
0.5857944 104.9662 4.207701 -0.6484199 1.097803 0.3823612 5.100386 -27.19667 5.83344 -0 28.60272 -0 -6.380984 -9.63039 -2.065194 -5.797062 12.63487 -19.81873 -0 7.00566 -0 4.90208 -19.88805 21.77971 -2.351877 -2.434808 3.90294 2.536387 9.724935 -8.01556 1.202318 20.91928 7.697394 3.875989 -24.95582 9.577366 5.8149 -18.68172 11.57502 86.87734 34.80917 -20.76891 -0 0 14.61428 -10.16088 9.804008 5.149513 7.348543 -22.06204 -1.950876 -91.02403 23.96133 18.30859 0 0 -20.35672 10.31343 16.28473 2.100642
0.9080433 105.3838 7.241375 -1.029226 2.231439 0.7067786 5.904529 -30.17281 5.738338 -0 24.85609 -0 -5.975174 -8.719606 -1.779927 -5.697795 13.18605 -19.48613 -0 7.65749 -0 3.740525 -21.08767 20.66601 -2.082617 -2.109821 3.980686 2.665919 9.454984 -8.142875 1.263775 20.4173 7.940654 4.135221 -25.49092 9.791722 5.847174 -18.37304 11.43443 86.92342 35.30209 -21.42386 -0 0 14.48763 -9.743662 10.10352 4.843387 7.830172 -22.36401 -1.63322 -91.05257 24.60447 18.31061 0 0 -22.01198 9.805015 16.00333 2.93683
1.268707 105.7208 10.59203 -1.314309 4.042086 1.138438 6.934545 -33.80503 5.894435 -0 20.02408 -0 -5.15111 -7.785083 -1.147647 -5.871355 13.65017 -19.40405 -0 8.462088 -0 2.993493 -22.40231 19.60836 -1.988241 -1.766634 4.228065 2.87214 9.037446 -8.230821 1.343795 19.72863 8.282394 4.509488 -26.24016 10.15102 6.251979 -17.89358 11.27404 86.6299 36.90225 -22.04827 -0 0 14.36834 -8.804702 10.65906 4.418384 8.429451 -22.42248 -1.060152 -91.12954 25.24018 18.47136 0 0 -24.08186 9.637463 15.4637 3.425073
1.667307 105.9283 14.29588 -1.515353 5.110947 1.659847 7.387126 -36.10453 5.286907 -0 16.31032 -0 -4.940039 -6.056939 -0.3770379 -5.932079 13.97617 -18.91638 -0 9.577978 -0 1.425453 -23.54343 18.03026 -1.862813 -1.362809 4.244541 2.886154 8.729597 -8.214593 1.341083 19.3155 8.607547 4.941034 -26.5186 10.26153 6.511849 -17.31666 11.107 86.40098 37.84377 -22.35558 -0 0 14.05675 -8.710544 11.21533 4.211073 8.964277 -22.58317 -0.8071975 -91.10356 25.53408 18.30293 0 0 -25.22849 9.474275 15.32178 3.531807
2.104366 106.0457 18.37586 -1.593881 5.613259 2.247428 7.40272 -37.18658 4.158189 -0 13.455 -0 -5.154618 -4.010204 0.5024395 -5.960672 14.10905 -18.05406 -0 10.9592 -0 -0.05315691 -24.15962 16.39664 -1.770663 -1.003297 4.127675 2.824112 8.587409 -8.173417 1.240164 19.11129 8.851619 5.33204 -26.48612 10.13596 6.644305 -16.7645 11.00257 86.25417 38.35124 -22.4065 -0 0 13.56437 -9.16369 11.67993 4.171341 9.378017 -22.81452 -0.8299987 -90.83469 25.06928 17.74939 0 0 -25.5987 9.882983 15.25874 2.610544
2.569864 106.0943 22.86882 -1.522924 5.401133 2.852545 6.995929 -36.82158 2.432134 -0 11.31113 -0 -5.816628 -1.742273 1.444669 -5.932173 14.10032 -16.68293 -0 12.73598 -0 -1.223069 -24.05146 14.81599 -1.677161 -0.7336537 3.858346 2.698121 8.663371 -8.125539 1.025399 19.17608 8.964337 5.59655 -26.13866 9.740896 6.461961 -16.30109 10.98855 86.39582 38.08573 -22.2876 -0 0 12.73938 -10.2812 11.94958 4.369054 9.599848 -23.18519 -1.228931 -90.21584 23.67395 16.66201 0 0 -25.28822 10.95778 15.18734 0.5116102
3.035849 106.0805 27.79317 -1.257741 4.167094 3.386854 6.240237 -34.66933 0.2219354 -0 9.928311 -0 -6.930041 0.4194741 2.181142 -5.815396 14.06141 -14.75874 -0 14.99274 -0 -1.724364 -22.96194 13.60341 -1.515608 -0.6770564 3.4634 2.499149 9.056602 -8.077384 0.7309513 19.63217 8.834285 5.562224 -25.44993 9.072132 5.586564 -16.11905 11.09563 87.284 36.30007 -22.2458 -0 0 11.40077 -12.20877 11.76539 4.926178 9.474864 -23.82169 -2.159487 -89.16756 21.3675 14.97786 0 0 -24.70977 12.49578 15.01261 -2.396671
3.453201 106.0334 33.17077 -0.8490117 1.79424 3.745588 5.420976 -31.02455 -2.018766 -0 9.117683 -0 -8.466307 2.189712 2.247402 -5.577096 14.19409 -12.38026 -0 18.25159 -0 -1.431404 -20.85608 12.99181 -1.145976 -0.9763277 3.079867 2.205682 9.849684 -8.049375 0.5054195 20.5004 8.332126 5.083265 -24.47428 8.22814 3.610108 -16.44211 11.27479 89.46234 32.25822 -22.70421 -0 0 9.458885 -14.87854 10.87281 5.83157 8.869721 -24.9022 -3.670832 -87.71225 18.63461 12.89935 0 0 -24.84235 13.8273 14.73533 -4.885141
3.773591 106.1474 39.02586 -0.5518868 -1.029835 3.841618 5.058293 -27.17384 -3.401754 -0 8.760249 -0 -10.23066 3.462373 1.427147 -5.204589 14.38695 -10.015 -0 23.77244 -0 -0.6579119 -18.03458 12.89959 -0.4731377 -1.629531 2.945887 1.868031 10.97773 -8.117902 0.5330667 21.4244 7.492417 4.306621 -23.49795 7.440444 0.8877954 -17.23907 11.39939 92.59201 26.87748 -23.72905 -0 0 7.404883 -17.54414 9.584883 6.676588 7.852715 -26.2956 -5.387247 -86.21781 16.31363 11.24061 0 0 -26.22522 14.31533 14.48678 -5.697518
3.986118 106.7585 45.26948 -0.5823993 -3.081344 3.636985 5.45167 -24.07624 -3.370418 -0 9.022187 -0 -11.74449 4.10903 0.2895761 -4.716295 13.82102 -8.319764 -0 31.86902 -0 0.01068381 -14.98414 12.91599 0.3253624 -2.312323 3.173769 1.622994 12.12547 -8.30333 0.7437989 21.87429 6.664526 3.687614 -22.87741 6.889394 -1.213496 -18.08402 11.47447 95.12555 22.97471 -24.73487 -0 0 6.25463 -19.18054 8.841575 7.016678 6.77416 -27.337 -6.63439 -85.38438 14.88954 11.01808 0 0 -27.55356 14.11734 14.31295 -5.160652
4.106323 107.9427 51.68706 -0.7515842 -4.204061 3.187438 6.163402 -21.33409 -2.528317 -0 9.700028 -0 -12.67729 4.022006 -0.6260548 -4.206416 12.11578 -7.435192 -0 40.24703 -0 0.3710239 -12.251 12.90949 0.9462258 -2.71367 3.621626 1.465107 12.99844 -8.416727 0.9680314 21.92296 6.071725 3.345505 -22.57778 6.589536 -2.206815 -18.72978 11.57539 96.37901 21.38668 -25.20798 -0 0 6.169377 -19.7945 8.889168 7.050714 5.881404 -27.65758 -7.263227 -85.33572 14.29618 12.05037 0 0 -27.76299 13.62115 14.23978 -4.185036
4.143585 109.5277 58.12414 -0.8265706 -5.020399 2.584624 6.699152 -18.54587 -1.673768 -0 10.36656 -0 -13.15822 3.550813 -1.341054 -3.777122 9.841321 -6.995195 -0 46.97489 -0 0.6446838 -10.10619 13.01292 1.324344 -2.887422 4.126333 1.288982 13.63336 -8.348081 1.192669 21.9196 5.603661 3.060092 -22.37318 6.457418 -2.762662 -19.31449 11.6781 96.98635 20.6858 -25.1833 -0 0 6.541655 -20.07593 9.273356 7.176179 5.132661 -27.55397 -7.62041 -85.59012 14.22702 13.492 0 0 -27.4931 12.90709 14.30097 -2.955233
4.10171 111.3764 64.49133 -0.808542 -5.751984 1.888775 7.035948 -15.7047 -0.9800734 -0 10.8991 -0 -13.36467 2.899912 -1.912795 -3.40185 7.316089 -6.741528 -0 51.99022 -0 0.9293423 -8.467834 13.23612 1.517942 -2.918832 4.622303 1.088451 14.12397 -8.160271 1.405734 21.92941 5.191132 2.782218 -22.17888 6.395864 -3.149069 -19.90533 11.77562 97.25462 20.32101 -24.80314 -0 0 7.162108 -20.28033 9.799447 7.413598 4.496004 -27.25027 -7.866143 -85.96382 14.36911 15.03403 0 0 -26.99322 12.12648 14.45161 -1.713786
3.989244 113.3866 70.71225 -0.7354136 -6.433705 1.132418 7.249232 -12.68501 -0.4395603 -0 11.25874 -0 -13.362 1.987968 -2.336929 -3.006697 4.471632 -6.56333 -0 55.54754 -0 1.196031 -7.202589 13.57606 1.549911 -2.792968 5.083437 0.8875124 14.47835 -7.89758 1.573572 21.93788 4.83699 2.560266 -21.9501 6.336115 -3.318135 -20.47992 11.88291 97.11939 20.38704 -24.03897 -0 0 8.082663 -20.42043 10.44779 7.662989 3.991487 -26.76646 -8.014515 -86.50533 14.50842 16.64461 0 0 -25.94224 11.45829 14.65837 -0.80912
3.818362 115.4441 76.73151 -0.6200992 -7.16362 0.3350965 7.356008 -9.348877 -0.06793224 -0 11.39378 -0 -13.19817 0.8078699 -2.672822 -2.547119 1.312623 -6.360661 -0 57.60263 -0 1.486015 -6.219516 14.05569 1.459894 -2.551038 5.513576 0.6797114 14.73782 -7.57133 1.701986 21.96374 4.497275 2.350825 -21.65937 6.249613 -3.400592 -21.11914 11.99455 96.69449 20.61859 -22.89462 -0 0 9.289782 -20.59175 11.15409 7.967902 3.576747 -26.15984 -8.126878 -87.17845 14.5753 18.32695 0 0 -24.40265 10.86784 14.91768 -0.1810993
3.606396 117.4298 82.51609 -0.4908424 -7.995179 -0.4897892 7.381974 -5.642755 0.1540448 -0 11.28857 -0 -12.90107 -0.6239773 -2.981861 -1.977261 -2.109932 -6.05319 -0 57.95134 -0 1.860343 -5.449304 14.67355 1.298415 -2.260626 5.925986 0.4625702 14.95398 -7.201246 1.803068 22.00129 4.12234 2.086532 -21.31271 6.127015 -3.541787 -21.9414 12.09939 96.12504 20.71383 -21.40417 -0 0 10.79791 -20.87452 11.87921 8.414382 3.192978 -25.49249 -8.253759 -87.93934 14.56063 20.15302 0 0 -22.56674 10.24796 15.22117 0.3794799
3.382865 119.217 88.05149 -0.3975503 -8.894188 -1.336141 7.365635 -1.545462 0.2637604 -0 10.93821 -0 -12.46357 -2.38717 -3.274623 -1.225933 -5.774047 -5.585831 -0 56.17769 -0 2.327247 -4.839213 15.40418 1.102686 -1.960427 6.319512 0.2562764 15.1319 -6.814634 1.864414 22.01491 3.700199 1.738654 -20.9253 5.959286 -3.76964 -23.0283 12.18878 95.42549 20.58473 -19.55053 -0 0 12.70573 -21.27578 12.62109 9.053942 2.81873 -24.77619 -8.388554 -88.81118 14.44158 22.2375 0 0 -20.42369 9.546846 15.54357 0.9700676
3.194379 120.6706 93.35665 -0.412106 -9.747248 -2.207541 7.338575 2.872491 0.3191583 -0 10.39076 -0 -11.87823 -4.592255 -3.531444 -0.2169761 -9.575323 -4.926567 -0 51.69395 -0 2.847646 -4.32258 16.17629 0.9222962 -1.702385 6.683402 0.09676955 15.24861 -6.449352 1.861936 21.94857 3.242571 1.292357 -20.52173 5.745177 -4.060134 -24.44109 12.24492 94.57231 20.21116 -17.33269 -0 0 15.12914 -21.75741 13.37361 9.938196 2.442949 -24.01285 -8.485179 -89.83473 14.20852 24.71599 0 0 -17.94544 8.709824 15.83327 1.714661
3.104364 121.679 98.50788 -0.6172457 -10.33315 -3.113158 7.304013 7.338243 0.4301251 -0 9.86491 -0 -11.18197 -7.290569 -3.695454 1.073677 -13.22906 -4.119927 -0 44.07249 -0 3.308099 -3.784992 16.83088 0.8306381 -1.57709 7.004457 0.02812119 15.26154 -6.156094 1.769845 21.72631 2.791074 0.7625452 -20.12988 5.496973 -4.321343 -26.17332 12.23785 93.52914 19.6558 -14.85102 -0 0 18.12641 -22.20884 14.10891 11.09495 2.057885 -23.21259 -8.451399 -91.03796 13.89161 27.70778 0 0 -15.2114 7.673133 15.99658 2.814919
3.181747 122.2149 103.6494 -1.041554 -10.35425 -4.044707 7.185826 11.34021 0.7342255 -0 9.834424 -0 -10.51272 -10.33384 -3.643927 2.504105 -16.28662 -3.386817 -0 33.73354 -0 3.472031 -3.078687 17.14484 0.8891616 -1.674856 7.272926 0.07021359 15.09785 -5.964437 1.571013 21.29406 2.446912 0.2763023 -19.7261 5.229073 -4.316165 -28.01074 12.14365 92.17781 19.21614 -12.34254 -0 0 21.56585 -22.42824 14.73397 12.41951 1.706811 -22.38645 -8.154941 -92.41122 13.53206 31.14895 0 0 -12.3545 6.486654 15.90439 4.347839
3.47074 122.3809 108.9574 -1.549835 -9.666622 -4.942624 6.80788 14.30522 1.24199 -0 10.84789 -0 -10.13078 -13.14536 -3.218277 3.677941 -18.35348 -3.133444 -0 22.7356 -0 3.061534 -2.142514 17.01736 1.06674 -1.982872 7.488497 0.1532584 14.69066 -5.814373 1.286532 20.72509 2.369605 0.132642 -19.17928 4.940265 -3.715243 -29.43734 11.98505 90.34429 19.4251 -10.13573 -0 0 24.92933 -22.26885 15.03961 13.58764 1.543943 -21.56297 -7.532902 -93.8216 13.09979 34.50379 0 0 -9.465572 5.492351 15.49254 5.898073
